<?xml version="1.0" encoding="UTF-8"?>
<svg id="Layer_1" data-name="Layer 1" xmlns="http://www.w3.org/2000/svg" viewBox="0 0 612 612">
  <defs>
    <style>
      .cls-1 {
        fill: #231f20;
      }

      .cls-2 {
        fill: #fff;
      }

      .cls-2, .cls-3, .cls-4 {
        stroke: #231f20;
        stroke-miterlimit: 10;
        stroke-width: 12px;
      }

      .cls-3 {
        fill: #e2b971;
      }

      .cls-4 {
        fill: #268842;
      }
    </style>
  </defs>
  <rect class="cls-3" x="125.77" y="125.53" width="361.56" height="361.56" rx="2.12" ry="2.12" transform="translate(-126.81 306.48) rotate(-45)"/>
  <path class="cls-2" d="M66.18,274.14h61.99v64.02c0,.06-.04.1-.1.1h-64.02v-61.99c0-1.17.95-2.12,2.12-2.12Z" transform="translate(-188.36 157.64) rotate(-45)"/>
  <path class="cls-2" d="M274.49,471.48c0-.1.08-.18.18-.18l30.99-.17,32.76.17c.1,0,.18.08.18.18v58.43l-29.3,29.3c-1.52,1.52-3.99,1.52-5.51,0l-29.3-29.3v-58.43Z"/>
  <path class="cls-2" d="M274.38,63.81h61.99c1.17,0,2.12.95,2.12,2.12v61.99h-64.02c-.06,0-.1-.04-.1-.1V63.81h0Z" transform="translate(21.96 244.76) rotate(-45)"/>
  <path class="cls-2" d="M484.91,274.25h64.02v61.99c0,1.17-.95,2.12-2.12,2.12h-61.99v-64.02c0-.06.04-.1.1-.1Z" transform="translate(-65.21 455.2) rotate(-45)"/>
  <polygon class="cls-1" points="322.95 298.22 290.15 298.22 290.15 314.18 322.95 314.18 322.95 298.22 322.95 298.22"/>
  <path class="cls-4" d="M265.77,306.17c0-14.99,8.49-27.97,20.91-34.47.92-.48,1.52-1.41,1.52-2.45v-49.51c0-1.2-.48-2.35-1.33-3.2l-38.64-38.45c-1.77-1.76-4.62-1.75-6.38,0l-81.45,81.47c-1.76,1.76-1.76,4.62,0,6.39l36.71,36.71c1.76,1.76,1.76,4.62,0,6.39l-36.81,36.81c-1.76,1.76-1.76,4.62,0,6.39l67.05,67.07c.85.85,1.99,1.32,3.19,1.32l53.14.03c2.5,0,4.52-2.02,4.52-4.52v-73.06c0-1.04-.6-1.96-1.52-2.45-12.42-6.51-20.91-19.48-20.91-34.47Z"/>
  <path class="cls-4" d="M452.47,259.56l-81.45-81.47c-1.76-1.76-4.62-1.77-6.38,0l-38.64,38.45c-.85.85-1.33,2-1.33,3.2v49.39c0,1.04.6,1.98,1.53,2.45,12.54,6.47,21.12,19.51,21.12,34.59s-8.59,28.12-21.12,34.59c-.93.48-1.53,1.41-1.53,2.45v72.94c0,2.5,2.02,4.52,4.52,4.52l50.5-.03c2.49,0,4.52-2.02,4.51-4.52v-80.02c0-1.2.47-2.35,1.32-3.19l66.96-66.96c1.76-1.76,1.76-4.62,0-6.39Z"/>
</svg>