<?xml version="1.0" encoding="UTF-8"?>
<svg id="Layer_1" data-name="Layer 1" xmlns="http://www.w3.org/2000/svg" viewBox="0 0 612 612">
  <defs>
    <style>
      .cls-1 {
        fill: none;
        stroke: #fff;
        stroke-miterlimit: 10;
        stroke-width: 12px;
      }

      .cls-2 {
        fill: #fff;
      }
    </style>
  </defs>
  <rect class="cls-1" x="127.89" y="127.65" width="357.31" height="357.31" rx="2.12" ry="2.12" transform="translate(-126.81 306.48) rotate(-45)"/>
  <path class="cls-1" d="M69.02,274.51h61.24v63.26c0,.06-.04.1-.1.1h-63.26v-61.24c0-1.17.95-2.12,2.12-2.12Z" transform="translate(-187.64 159.39) rotate(-45)"/>
  <path class="cls-1" d="M274.87,469.54c0-.1.08-.18.18-.18l30.62-.17,32.38.17c.1,0,.18.08.18.18v57.75l-28.96,28.96c-1.5,1.5-3.94,1.5-5.45,0l-28.96-28.96v-57.75Z"/>
  <path class="cls-1" d="M274.75,66.66h61.24c1.17,0,2.12.95,2.12,2.12v61.24h-63.26c-.06,0-.1-.04-.1-.1v-63.26h0Z" transform="translate(20.21 245.49) rotate(-45)"/>
  <path class="cls-1" d="M482.82,274.63h63.26v61.24c0,1.17-.95,2.12-2.12,2.12h-61.24v-63.26c0-.06.04-.1.1-.1Z" transform="translate(-65.93 453.45) rotate(-45)"/>
  <polygon class="cls-2" points="322.75 298.31 290.34 298.31 290.34 314.08 322.75 314.08 322.75 298.31 322.75 298.31"/>
  <path class="cls-1" d="M266.25,306.17c0-14.82,8.39-27.64,20.67-34.07.91-.48,1.5-1.39,1.5-2.42v-48.93c0-1.19-.47-2.33-1.32-3.16l-38.19-38c-1.74-1.74-4.57-1.73-6.31,0l-80.5,80.51c-1.74,1.74-1.74,4.57,0,6.31l36.28,36.28c1.74,1.74,1.74,4.57,0,6.31l-36.38,36.38c-1.74,1.74-1.74,4.57,0,6.31l66.27,66.28c.84.84,1.97,1.31,3.15,1.31l52.52.03c2.47,0,4.47-2,4.47-4.46v-72.21c0-1.03-.59-1.94-1.5-2.42-12.27-6.43-20.67-19.25-20.67-34.07Z"/>
  <path class="cls-1" d="M450.76,260.11l-80.5-80.51c-1.74-1.74-4.56-1.74-6.31,0l-38.19,38c-.84.84-1.32,1.98-1.32,3.16v48.81c0,1.03.6,1.95,1.52,2.43,12.39,6.39,20.88,19.28,20.88,34.18s-8.49,27.79-20.88,34.18c-.92.47-1.52,1.39-1.52,2.43v72.08c0,2.47,2,4.47,4.47,4.46l49.91-.03c2.46,0,4.46-2,4.46-4.46v-79.08c0-1.18.46-2.32,1.3-3.16l66.17-66.17c1.74-1.74,1.74-4.57,0-6.31Z"/>
</svg>