<?xml version="1.0" encoding="UTF-8"?>
<svg id="Layer_1" data-name="Layer 1" xmlns="http://www.w3.org/2000/svg" viewBox="0 0 612 612">
  <defs>
    <style>
      .cls-1 {
        fill: #fff;
      }
    </style>
  </defs>
  <path class="cls-1" d="M306.55,564.08c-2.08,0-4.16-.79-5.74-2.37L51.15,312.05c-3.17-3.17-3.17-8.32,0-11.49L300.8,50.91c3.17-3.17,8.32-3.17,11.49,0l249.66,249.65c3.17,3.17,3.17,8.32,0,11.49h0s-249.66,249.66-249.66,249.66c-1.58,1.58-3.66,2.38-5.74,2.38ZM62.38,306.31l244.17,244.17,244.17-244.17L306.55,62.14,62.38,306.31Z"/>
  <path class="cls-1" d="M98.58,359.49l-47.55-47.55c-3.17-3.17-3.17-8.32,0-11.49l47.55-47.55,50.74,50.74.02,2.57c0,1.61-.67,3.19-1.81,4.32l-48.95,48.95ZM62.26,306.2l36.32,36.32,36.32-36.32-36.32-36.32-36.32,36.32ZM59.52,308.94h0s0,0,0,0h0Z"/>
  <path class="cls-1" d="M306.55,563.37c-2.52,0-5.05-.96-6.97-2.88l-30.72-30.72v-60.23c0-3.38,2.75-6.15,6.12-6.18l30.65-.17,32.44.17c3.4.03,6.15,2.81,6.15,6.18v60.23l-30.72,30.72c-1.92,1.92-4.44,2.88-6.97,2.88ZM280.87,524.8l25.68,25.68,25.68-25.68v-49.47l-26.59-.14-24.77.14v49.48Z"/>
  <path class="cls-1" d="M306.44,149.11c-1.56,0-3.12-.59-4.31-1.78l-48.98-48.98,47.55-47.55c3.17-3.17,8.32-3.17,11.49,0l47.55,47.55-48.98,48.98c-1.19,1.19-2.75,1.78-4.31,1.78ZM270.12,98.34l36.32,36.32,36.32-36.32-36.32-36.32-36.32,36.32Z"/>
  <path class="cls-1" d="M514.4,359.6l-48.98-48.98c-2.38-2.38-2.38-6.25,0-8.63l48.98-48.98,47.55,47.55c3.17,3.17,3.17,8.32,0,11.49l-47.55,47.55ZM478.08,306.31l36.32,36.32,36.32-36.32-36.32-36.32-36.32,36.32Z"/>
  <polygon class="cls-1" points="322.75 298.31 290.34 298.31 290.34 314.08 322.75 314.08 322.75 298.31 322.75 298.31"/>
  <path class="cls-1" d="M283.95,425.33h0l-52.52-.03c-2.79,0-5.42-1.09-7.39-3.07l-66.27-66.28c-4.08-4.08-4.08-10.72,0-14.8l35.29-35.3-35.19-35.19c-4.08-4.08-4.08-10.72,0-14.8l80.5-80.51c4.07-4.07,10.7-4.08,14.78-.02l38.19,38c1.96,1.95,3.08,4.65,3.08,7.42v48.93c0,3.25-1.81,6.21-4.72,7.73-10.76,5.64-17.45,16.66-17.45,28.75s6.69,23.12,17.45,28.75c2.91,1.53,4.72,4.49,4.72,7.73v72.21c0,2.8-1.09,5.42-3.07,7.4-1.98,1.98-4.6,3.06-7.4,3.06ZM232.07,413.29l50.35.03v-68.72c-13.72-7.96-22.16-22.51-22.16-38.44s8.44-30.48,22.16-38.44v-46.34l-36.65-36.47-78.33,78.34,35.19,35.19c1.98,1.98,3.06,4.6,3.06,7.4s-1.09,5.42-3.07,7.4l-35.29,35.29,64.73,64.75Z"/>
  <path class="cls-1" d="M328.92,425.33c-2.79,0-5.42-1.09-7.4-3.06-1.98-1.98-3.07-4.61-3.07-7.4v-72.08c0-3.27,1.83-6.25,4.77-7.76,10.87-5.61,17.62-16.66,17.62-28.85s-6.75-23.24-17.63-28.85c-2.94-1.52-4.76-4.49-4.76-7.76v-48.81c0-2.76,1.12-5.47,3.08-7.42l38.19-38c4.08-4.06,10.71-4.05,14.78.02l80.5,80.51c1.98,1.98,3.06,4.6,3.06,7.4,0,2.8-1.09,5.42-3.07,7.4l-65.72,65.72v78.45c0,5.77-4.68,10.46-10.45,10.47l-49.91.03h0ZM330.45,344.74v68.58l46.83-.03v-77.55c0-2.8,1.08-5.42,3.06-7.4l65.08-65.09-78.33-78.34-36.65,36.47v46.21c13.86,7.93,22.39,22.53,22.39,38.57s-8.53,30.64-22.39,38.57Z"/>
</svg>