<?xml version="1.0" encoding="UTF-8"?>
<svg id="Layer_1" data-name="Layer 1" xmlns="http://www.w3.org/2000/svg" viewBox="0 0 612 612">
  <defs>
    <style>
      .cls-1 {
        fill: #e2b971;
      }

      .cls-2 {
        fill: #231f20;
      }

      .cls-3 {
        fill: #fff;
      }

      .cls-4 {
        fill: #268842;
      }
    </style>
  </defs>
  <g>
    <rect class="cls-1" x="125.77" y="125.53" width="361.56" height="361.56" rx="2.12" ry="2.12" transform="translate(-126.81 306.48) rotate(-45)"/>
    <path class="cls-2" d="M306.55,567.09c-2.08,0-4.16-.79-5.74-2.38L48.15,312.05c-1.53-1.53-2.38-3.57-2.38-5.74s.85-4.21,2.38-5.75L300.81,47.91c1.53-1.53,3.57-2.38,5.74-2.38s4.21.85,5.75,2.38l252.66,252.66c3.17,3.17,3.17,8.32,0,11.49l-252.66,252.66c-1.58,1.58-3.66,2.38-5.74,2.38ZM59.37,306.31l247.18,247.18,247.18-247.18L306.55,59.13,59.37,306.31Z"/>
  </g>
  <g>
    <path class="cls-3" d="M66.18,274.14h61.99v64.02c0,.06-.04.1-.1.1h-64.02v-61.99c0-1.17.95-2.12,2.12-2.12Z" transform="translate(-188.36 157.64) rotate(-45)"/>
    <path class="cls-2" d="M96.11,360.02l-48.08-48.08c-1.53-1.53-2.38-3.57-2.38-5.74s.84-4.21,2.38-5.74l48.08-48.08,49.51,49.51c2.38,2.38,2.38,6.25,0,8.63l-49.51,49.51ZM59.26,306.2l36.85,36.85,36.85-36.85-36.85-36.85-36.85,36.85Z"/>
  </g>
  <g>
    <path class="cls-3" d="M274.49,471.48c0-.1.08-.18.18-.18l30.99-.17,32.76.17c.1,0,.18.08.18.18v58.43l-29.3,29.3c-1.52,1.52-3.99,1.52-5.51,0l-29.3-29.3v-58.43Z"/>
    <path class="cls-2" d="M306.55,566.35c-2.53,0-5.07-.96-7-2.89l-31.06-31.06v-60.92c0-3.41,2.77-6.18,6.18-6.18l30.96-.17,32.83.17c3.38,0,6.15,2.77,6.15,6.18v60.92l-31.06,31.06c-1.93,1.93-4.46,2.89-7,2.89ZM280.49,527.43l26.06,26.06,26.06-26.06v-50.16l-26.98-.14-25.14.14v50.17ZM338.36,477.3h.06-.06ZM274.77,477.3h-.06.06Z"/>
  </g>
  <g>
    <path class="cls-3" d="M274.38,63.81h61.99c1.17,0,2.12.95,2.12,2.12v61.99h-64.02c-.06,0-.1-.04-.1-.1V63.81h0Z" transform="translate(21.96 244.76) rotate(-45)"/>
    <path class="cls-2" d="M306.44,147.17c-1.56,0-3.12-.59-4.31-1.78l-49.51-49.51,48.08-48.08c1.53-1.53,3.57-2.38,5.74-2.38s4.21.85,5.75,2.38l48.08,48.08-49.51,49.51c-1.19,1.19-2.75,1.78-4.31,1.78ZM269.58,95.87l36.85,36.85,36.85-36.85-36.85-36.85-36.85,36.85Z"/>
  </g>
  <g>
    <path class="cls-3" d="M484.91,274.25h64.02v61.99c0,1.17-.95,2.12-2.12,2.12h-61.99v-64.02c0-.06.04-.1.1-.1Z" transform="translate(-65.21 455.2) rotate(-45)"/>
    <path class="cls-2" d="M516.87,360.13l-49.51-49.51c-2.38-2.38-2.38-6.25,0-8.63l49.51-49.51,48.08,48.08c3.17,3.17,3.17,8.32,0,11.49l-48.08,48.08ZM480.02,306.31l36.85,36.85,36.85-36.85-36.85-36.85-36.85,36.85Z"/>
  </g>
  <polygon class="cls-2" points="322.95 298.22 290.15 298.22 290.15 314.18 322.95 314.18 322.95 298.22 322.95 298.22"/>
  <g>
    <path class="cls-4" d="M265.77,306.17c0-14.99,8.49-27.97,20.91-34.47.92-.48,1.52-1.41,1.52-2.45v-49.51c0-1.2-.48-2.35-1.33-3.2l-38.64-38.45c-1.77-1.76-4.62-1.75-6.38,0l-81.45,81.47c-1.76,1.76-1.76,4.62,0,6.39l36.71,36.71c1.76,1.76,1.76,4.62,0,6.39l-36.81,36.81c-1.76,1.76-1.76,4.62,0,6.39l67.05,67.07c.85.85,1.99,1.32,3.19,1.32l53.14.03c2.5,0,4.52-2.02,4.52-4.52v-73.06c0-1.04-.6-1.96-1.52-2.45-12.42-6.51-20.91-19.48-20.91-34.47Z"/>
    <path class="cls-2" d="M283.69,426.67h0l-53.14-.03c-2.8,0-5.44-1.09-7.43-3.08l-67.05-67.07c-4.1-4.1-4.1-10.77,0-14.87l35.76-35.76-35.66-35.66c-4.1-4.1-4.1-10.77,0-14.87l81.45-81.47c4.09-4.09,10.76-4.1,14.86-.02l38.64,38.45c1.97,1.96,3.1,4.68,3.1,7.46v49.51c0,3.26-1.81,6.23-4.73,7.76-10.91,5.72-17.69,16.89-17.69,29.16s6.78,23.44,17.69,29.16c2.92,1.53,4.73,4.51,4.73,7.76v73.06c0,2.81-1.09,5.45-3.08,7.44-1.99,1.99-4.63,3.08-7.43,3.08ZM231.16,414.64l51.05.03v-69.65c-13.88-8.04-22.43-22.75-22.43-38.85s8.55-30.81,22.43-38.85v-46.96l-37.16-36.97-79.36,79.38,35.66,35.66c4.1,4.1,4.1,10.77,0,14.87l-35.76,35.76,65.57,65.59Z"/>
  </g>
  <g>
    <path class="cls-4" d="M452.47,259.56l-81.45-81.47c-1.76-1.76-4.62-1.77-6.38,0l-38.64,38.45c-.85.85-1.33,2-1.33,3.2v49.39c0,1.04.6,1.98,1.53,2.45,12.54,6.47,21.12,19.51,21.12,34.59s-8.59,28.12-21.12,34.59c-.93.48-1.53,1.41-1.53,2.45v72.94c0,2.5,2.02,4.52,4.52,4.52l50.5-.03c2.49,0,4.52-2.02,4.51-4.52v-80.02c0-1.2.47-2.35,1.32-3.19l66.96-66.96c1.76-1.76,1.76-4.62,0-6.39Z"/>
    <path class="cls-2" d="M329.18,426.67c-2.81,0-5.45-1.09-7.43-3.08-1.99-1.99-3.08-4.63-3.08-7.44v-72.94c0-3.28,1.83-6.27,4.79-7.79,11.02-5.69,17.87-16.9,17.87-29.26s-6.85-23.57-17.88-29.26c-2.95-1.52-4.78-4.5-4.78-7.79v-49.39c0-2.78,1.13-5.5,3.1-7.46l38.64-38.45c4.1-4.08,10.77-4.07,14.86.02l81.45,81.47c4.1,4.1,4.1,10.77,0,14.87l-66.52,66.52v79.41c0,5.79-4.71,10.51-10.5,10.52l-50.5.03h0ZM330.67,345.16v69.51l47.53-.03v-78.54c0-2.81,1.09-5.45,3.07-7.44l65.91-65.91-79.36-79.38-37.16,36.98v46.83c14.03,8.01,22.66,22.77,22.66,38.99s-8.63,30.98-22.66,38.99ZM448.23,263.8h0Z"/>
  </g>
</svg>